Coordinates
version=1
nRows=16
nColumns=40
inDegrees=yes

Units are S.I. units (second, meters, Newtons, ...)
Angles are in degrees.

endheader
time	pelvis_tilt	pelvis_list	pelvis_rotation	pelvis_tx	pelvis_ty	pelvis_tz	hip_flexion_r	hip_adduction_r	hip_rotation_r	knee_angle_r	knee_angle_r_beta	ankle_angle_r	subtalar_angle_r	mtp_angle_r	hip_flexion_l	hip_adduction_l	hip_rotation_l	knee_angle_l	knee_angle_l_beta	ankle_angle_l	subtalar_angle_l	mtp_angle_l	lumbar_extension	lumbar_bending	lumbar_rotation	arm_flex_r	arm_add_r	arm_rot_r	elbow_flex_r	pro_sup_r	wrist_flex_r	wrist_dev_r	arm_flex_l	arm_add_l	arm_rot_l	elbow_flex_l	pro_sup_l	wrist_flex_l	wrist_dev_l
     39.42000000	     -0.57039955	     -5.16051774	      1.23223524	      1.12324235	      0.93288043	      0.54024939	     10.12636180	      3.09872369	    -15.86313217	     18.04065444	     18.04065444	     10.30633380	     -1.61598014	     -5.08442883	     30.29089239	    -14.10667310	      0.49353104	     63.75117633	     63.75117633	      7.77872176	    -18.57736062	     12.69407124	    -12.16791791	      7.27006714	      1.86346092	     13.71999799	    -19.07948752	     -0.61479532	     52.98736942	     45.55616507	      0.00000000	      0.00000000	     -1.17177676	     -9.99655674	    -12.76731901	     34.66600787	     45.59612655	      0.00000000	      0.00000000
     39.43342857	     -0.84840659	     -5.00580769	      1.55524852	      1.12157967	      0.93318454	      0.54041799	      9.86784795	      3.01479815	    -16.03046223	     17.53648152	     17.53648152	     10.36804798	     -1.62046331	     -5.10243483	     31.30202540	    -13.89464905	      0.39314592	     61.14854771	     61.14854771	      8.22404430	    -18.67007666	     12.87232477	    -12.07935844	      7.10103253	      2.11762932	     14.51567295	    -19.23446760	     -0.67714026	     53.30287401	     45.55164261	      0.00000000	      0.00000000	     -1.30031688	     -9.79540218	    -12.75706688	     34.50618473	     45.59863478	      0.00000000	      0.00000000
     39.44685714	     -1.03245778	     -4.90216814	      1.93968964	      1.12001249	      0.93372097	      0.54052532	      9.34682638	      3.01718169	    -16.34511822	     16.72696023	     16.72696023	     10.31327215	     -1.42459058	     -5.19107506	     31.99003229	    -13.63095927	      0.38630966	     58.15827444	     58.15827444	      8.54238312	    -18.72661480	     13.08202065	    -12.09419266	      7.00523527	      2.19189264	     15.37625138	    -19.29003256	     -0.70308615	     53.76348044	     45.54044116	      0.00000000	      0.00000000	     -1.47823416	     -9.64277579	    -12.76705691	     34.21952217	     45.60724019	      0.00000000	      0.00000000
     39.46028571	     -1.32058360	     -4.78261057	      2.29084946	      1.11836838	      0.93391178	      0.54050185	      9.05159138	      2.96668724	    -16.59393942	     16.11922821	     16.11922821	     10.33629397	     -1.31053951	     -5.29677270	     32.64954482	    -13.26696774	      0.41077435	     54.98058979	     54.98058979	      8.87525662	    -18.65921934	     13.27848910	    -11.99807225	      6.91178816	      2.35779356	     16.22019937	    -19.47379924	     -0.74828412	     54.17526702	     45.53202920	      0.00000000	      0.00000000	     -1.61896569	     -9.43495717	    -12.75987541	     34.04801968	     45.61012264	      0.00000000	      0.00000000
     39.47371429	     -1.53286230	     -4.65985142	      2.64459726	      1.11682052	      0.93419683	      0.54031685	      8.64121921	      2.91171432	    -16.88498203	     15.45162552	     15.45162552	     10.30714346	     -1.12474733	     -5.45362259	     33.03125800	    -12.79599588	      0.53258177	     51.53518442	     51.53518442	      9.05931054	    -18.51486032	     13.46370996	    -11.98803985	      6.78753545	      2.44597393	     17.02586121	    -19.57594226	     -0.75768193	     54.62689265	     45.52042099	      0.00000000	      0.00000000	     -1.75698029	     -9.29377476	    -12.76762414	     33.83596087	     45.61607689	      0.00000000	      0.00000000
     39.48714286	     -1.66650007	     -4.55941481	      3.02666880	      1.11538008	      0.93445708	      0.54000303	      8.05077463	      2.86488010	    -17.45238008	     14.57601844	     14.57601844	      9.79222172	     -0.66147209	     -7.15449295	     33.09608447	    -12.30681567	      0.71378425	     47.73483283	     47.73483283	      8.47046386	    -18.32110337	     11.66467013	    -12.05772680	      6.74090455	      2.45586424	     17.84725928	    -19.78834211	     -0.33850223	     55.28403906	     45.48251215	      0.00000000	      0.00000000	     -1.67005471	     -9.07726302	    -13.16486540	     33.07782834	     45.73032108	      0.00000000	      0.00000000
     39.50057143	     -1.92314812	     -4.41424242	      3.34886863	      1.11382001	      0.93446146	      0.53960073	      7.80551140	      2.76520382	    -17.58841739	     14.11300462	     14.11300462	      9.85367061	     -0.74843892	     -7.17463090	     33.24025173	    -11.67193561	      1.06450284	     43.97813593	     43.97813593	      8.54091842	    -17.75986823	     11.83797499	    -11.99883680	      6.60331470	      2.55524084	     18.58457975	    -19.86857037	     -0.39369335	     55.65375103	     45.47554740	      0.00000000	      0.00000000	     -1.76352665	     -8.97857251	    -13.18939451	     32.99990148	     45.74009560	      0.00000000	      0.00000000
     39.51400000	     -2.14698375	     -4.30218498	      3.67747279	      1.11237124	      0.93442212	      0.53906092	      7.53966424	      2.67895671	    -17.79609989	     13.69154805	     13.69154805	      9.91880782	     -0.72748451	     -7.27751028	     33.23316210	    -11.06025090	      1.47782025	     40.15045883	     40.15045883	      8.55888145	    -16.81529114	     11.73595240	    -11.98628405	      6.48752474	      2.59707991	     19.32937675	    -19.90964374	     -0.42820433	     56.03117051	     45.46751923	      0.00000000	      0.00000000	     -1.81696112	     -8.89695797	    -13.21494596	     32.88002564	     45.75081912	      0.00000000	      0.00000000
     39.52742857	     -2.34601164	     -4.21454844	      4.00198093	      1.11098502	      0.93430101	      0.53841570	      7.26998496	      2.60433258	    -18.04086352	     13.32247999	     13.32247999	      9.99206856	     -0.69253105	     -7.44100302	     33.10669908	    -10.50558410	      1.87429705	     36.32385473	     36.32385473	      8.49625948	    -15.42814677	     11.34677571	    -11.99300529	      6.40546429	      2.59552961	     20.06481468	    -19.92929931	     -0.43968040	     56.39238892	     45.45912615	      0.00000000	      0.00000000	     -1.81515659	     -8.83077150	    -13.25050644	     32.73302967	     45.76481551	      0.00000000	      0.00000000
     39.54085714	     -2.50920148	     -4.20963210	      4.32997443	      1.10980509	      0.93407846	      0.53764423	      6.88603199	      2.63070338	    -18.34025442	     12.80780754	     12.80780754	      9.89173606	     -0.55640938	     -8.08163655	     32.77767212	    -10.10372696	      2.13887676	     32.35352739	     32.35352739	      7.21003041	    -13.89378917	      7.92843269	    -11.98821393	      6.40367326	      2.49110713	     20.85246791	    -19.90301135	     -0.23668726	     56.65427749	     45.44638831	      0.00000000	      0.00000000	     -1.71970514	     -8.72947283	    -13.58154930	     32.23510734	     45.85791178	      0.00000000	      0.00000000
     39.55428571	     -2.80949544	     -4.43435756	      4.70598758	      1.10845430	      0.93330915	      0.53673847	      6.94243755	      2.81281111	    -18.60644229	     12.82809619	     12.82809619	     10.10267793	     -0.78516223	     -8.19161289	     32.93491543	     -9.79757019	      2.86906707	     29.22776007	     29.22776007	      7.29868003	    -12.21118710	      8.24477796	    -11.78181226	      6.70548910	      2.62813712	     21.50278558	    -20.09486450	     -0.29728526	     56.89728621	     45.44385357	      0.00000000	      0.00000000	     -1.58076741	     -8.67317682	    -13.57938484	     32.31152089	     45.86164769	      0.00000000	      0.00000000
     39.56771429	     -2.92550834	     -4.06227804	      4.89121654	      1.10751722	      0.93339191	      0.53583835	      6.59343724	      2.43043696	    -18.52398528	     12.58655467	     12.58655467	     10.27616550	     -0.94952720	     -8.19771555	     32.36915759	     -9.16935550	      2.53604055	     25.82153679	     25.82153679	      7.10452125	    -10.02883312	      8.62316205	    -11.89585534	      6.16484173	      2.58316738	     21.92934281	    -19.89696733	     -0.23162216	     57.21785908	     45.43220866	      0.00000000	      0.00000000	     -1.60387917	     -8.71487603	    -13.59821783	     32.23268798	     45.86891941	      0.00000000	      0.00000000
     39.58114286	     -3.01247881	     -4.05120607	      5.15449057	      1.10666128	      0.93309286	      0.53481630	      6.28366315	      2.41501349	    -18.59982495	     12.44275673	     12.44275673	     10.48637953	     -1.13236362	     -8.23513879	     32.10218590	     -8.86697562	      2.35722265	     23.27976768	     23.27976768	      6.92976521	     -8.07029899	      8.83583748	    -11.97648944	      6.11002678	      2.52379135	     22.47693028	    -19.79184692	     -0.16931812	     57.54662863	     45.42123589	      0.00000000	      0.00000000	     -1.52064067	     -8.78438334	    -13.62715956	     32.17992886	     45.88038684	      0.00000000	      0.00000000
     39.59457143	     -3.08961725	     -4.06512903	      5.39429123	      1.10600838	      0.93271400	      0.53372752	      5.97561258	      2.41931247	    -18.62238400	     12.34569538	     12.34569538	     10.71189456	     -1.33859279	     -8.24667696	     31.87919340	     -8.61813970	      1.97771069	     21.32388622	     21.32388622	      6.70641328	     -6.39964442	      8.95110326	    -11.99903606	      6.06356961	      2.45149377	     22.96623158	    -19.68727771	     -0.04745475	     57.87056516	     45.40791546	      0.00000000	      0.00000000	     -1.42298576	     -8.86458741	    -13.67011369	     32.13999143	     45.89546252	      0.00000000	      0.00000000
     39.60800000	     -3.20732814	     -4.09861065	      5.59215610	      1.10553326	      0.93220333	      0.53257125	      5.73594275	      2.42608982	    -18.63716294	     12.31883768	     12.31883768	     10.98192089	     -1.54685339	     -8.25993374	     31.74659381	     -8.38856693	      1.47828184	     19.98174617	     19.98174617	      6.41537717	     -5.35716048	      9.06302938	    -11.92953835	      6.00741803	      2.41598943	     23.31444672	    -19.59438604	      0.06791395	     58.13951099	     45.39598504	      0.00000000	      0.00000000	     -1.34955162	     -8.92645283	    -13.70000118	     32.14056650	     45.90580443	      0.00000000	      0.00000000
     39.62142857	     -3.27818676	     -4.12977111	      5.76587066	      1.10525617	      0.93167605	      0.53126713	      5.44726252	      2.41961008	    -18.60753193	     12.32722757	     12.32722757	     11.26948647	     -1.74351100	     -8.25663006	     31.61486457	     -8.17918976	      0.83558731	     19.27978989	     19.27978989	      6.08305472	     -4.78080857	      9.03017011	    -11.89691824	      5.98203302	      2.37468453	     23.61681065	    -19.48193315	      0.21458079	     58.42363142	     45.38224527	      0.00000000	      0.00000000	     -1.26081942	     -9.02958736	    -13.74326983	     32.14750148	     45.91866734	      0.00000000	      0.00000000
